<?xml version="1.0" standalone="no"?>
<!DOCTYPE svg PUBLIC "-//W3C//DTD SVG 20010904//EN"
 "http://www.w3.org/TR/2001/REC-SVG-20010904/DTD/svg10.dtd">
<svg version="1.0" xmlns="http://www.w3.org/2000/svg"
 width="74.000000pt" height="41.000000pt" viewBox="0 0 74.000000 41.000000"
 preserveAspectRatio="xMidYMid meet">

<g transform="translate(0.000000,41.000000) scale(0.100000,-0.100000)"
fill="#000000" stroke="none">
<path d="M95 231 c-43 -18 -60 -50 -60 -112 0 -50 4 -62 26 -85 47 -47 169
-41 169 8 0 19 -1 19 -26 -1 -64 -50 -144 -6 -144 79 0 85 80 129 144 79 25
-20 26 -20 26 -1 0 34 -82 54 -135 33z"/>
<path d="M286 219 c-52 -41 -29 -91 54 -112 46 -11 56 -17 58 -37 7 -48 -64
-67 -112 -29 l-26 20 0 -21 c0 -41 99 -55 144 -19 54 42 28 98 -54 114 -43 9
-60 22 -60 46 0 37 68 52 108 23 20 -14 22 -14 22 4 0 14 -9 21 -31 26 -52 10
-75 7 -103 -15z"/>
<path d="M470 120 c0 -100 3 -120 15 -120 11 0 15 12 15 45 0 45 0 45 35 45
46 0 85 37 85 79 0 43 -40 71 -101 71 l-49 0 0 -120z m104 84 c36 -36 9 -94
-45 -94 -29 0 -29 1 -29 55 0 54 0 55 29 55 16 0 37 -7 45 -16z"/>
</g>
</svg>
